<?xml version="1.0" encoding="iso-8859-1"?>
<!-- Generator: Adobe Illustrator 19.0.0, SVG Export Plug-In . SVG Version: 6.00 Build 0)  -->
<svg xmlns="http://www.w3.org/2000/svg" xmlns:xlink="http://www.w3.org/1999/xlink" version="1.1" id="Capa_1" x="0px" y="0px" viewBox="0 0 512 512" style="enable-background:new 0 0 512 512;" xml:space="preserve" width="512px" height="512px">
<g>
	<g>
		<path d="M491.855,298.274l-90.592,24.274l-32.109-18.538L388.213,271H435v-30h-46.787l-19.058-33.01l32.109-18.538l90.592,24.274    l7.764-28.978l-61.614-16.509l47.197-27.249l-15-25.98l-47.196,27.249l16.51-61.613l-28.979-7.765l-24.273,90.591l-32.109,18.538    L335.097,149l23.394-40.519l-25.98-15L309.116,134H271V96.923l66.317-66.317L316.104,9.394L271,54.498V0h-30v54.498L195.896,9.394    l-21.213,21.213L241,96.923V134h-38.116L179.49,93.481l-25.98,15L176.903,149l-19.058,33.01l-32.109-18.538L101.463,72.88    l-28.979,7.765l16.51,61.613L41.798,115.01l-15,25.98l47.197,27.249l-61.614,16.509l7.764,28.978l90.592-24.274l32.109,18.538    L123.787,241H77v30h46.787l19.058,33.01l-32.109,18.538l-90.592-24.274l-7.764,28.978l61.614,16.509L26.798,371.01l15,25.98    l47.196-27.249l-16.51,61.613l28.979,7.765l24.273-90.591l32.109-18.538L176.903,363l-23.394,40.519l25.98,15L202.884,378H241    v37.077l-66.317,66.317l21.213,21.213L241,457.502V512h30v-54.498l45.104,45.104l21.213-21.213L271,415.077V378h38.116    l23.394,40.519l25.98-15L335.097,363l19.058-33.01l32.109,18.538l24.273,90.591l28.979-7.765l-16.51-61.613l47.196,27.249    l15-25.98l-47.197-27.249l61.614-16.509L491.855,298.274z M168.825,289.01L149.768,256l19.058-33.01L226,256L168.825,289.01z     M241,348h-38.116l-19.058-33.01L241,281.98V348z M241,230.02l-57.174-33.01L202.884,164H241V230.02z M271,164h38.116    l19.058,33.01L271,230.02V164z M309.116,348H271v-66.02l57.174,33.01L309.116,348z M343.174,289.01L286,256l57.175-33.01    L362.232,256L343.174,289.01z" fill="#FFFFFF"/>
	</g>
</g>
<g>
</g>
<g>
</g>
<g>
</g>
<g>
</g>
<g>
</g>
<g>
</g>
<g>
</g>
<g>
</g>
<g>
</g>
<g>
</g>
<g>
</g>
<g>
</g>
<g>
</g>
<g>
</g>
<g>
</g>
</svg>
